# xmcd CD database file
#
# Track frame offsets:
#	150
#	15365
#	30983
#	45026
#	56106
#	63870
#	81428
#	97450
#	111244
#	130675
#	143713
#	161345
#	186424
#	201554
#	222611
#	236899
#	251218
#	268262
#	283868
#	302127
#	315181
#	327551
#	340389
#
# Disc length: 4812 seconds
#
# Revision: 0
# Processed by: cddbd v1.5.2PL0 Copyright (c) Steve Scherf et al.
# Submitted via: CDex 1.51
#
DISCID=6312ca17
DTITLE=Alison Krauss - So Long So Wrong (1-12) New Favorite (13-23
DYEAR=1900
DGENRE=Country
TTITLE0=01-So Long, so Wrong
TTITLE1=02-No Place to Hide
TTITLE2=03-Deeper Than Crying
TTITLE3=04-I Can Let Go Now
TTITLE4=06-Lil Liza Jane
TTITLE5=07-It Doesn't Matter
TTITLE6=08-Find my Way Back to my Heart
TTITLE7=09-I'll Remember you Love In my Prayers
TTITLE8=10-Looking In the Eyes of Love
TTITLE9=11-Pain of A Troubled Life
TTITLE10=12-Happiness
TTITLE11=14-There is A Reason
TTITLE12=01-Let Me Touch you For A While
TTITLE13=02-The Boy Who Wouldn't Hoe Corn
TTITLE14=03-The Lucky One
TTITLE15=04-Choctaw Hayride
TTITLE16=05-Crazy Faith
TTITLE17=07-I'm Gone
TTITLE18=08-Daylight
TTITLE19=10-Stars
TTITLE20=11-It all Comes Down to you
TTITLE21=12-Take Me For Longing
TTITLE22=13-New Favorite
EXTD=
EXTT0=
EXTT1=
EXTT2=
EXTT3=
EXTT4=
EXTT5=
EXTT6=
EXTT7=
EXTT8=
EXTT9=
EXTT10=
EXTT11=
EXTT12=
EXTT13=
EXTT14=
EXTT15=
EXTT16=
EXTT17=
EXTT18=
EXTT19=
EXTT20=
EXTT21=
EXTT22=
PLAYORDER=
